 999
Generato da Pj2 v3.0
 999
File..:Y:\public\html\test\bahn\download\profil-tt.dxf
  0
SECTION
  2
HEADER
  9
$INSBASE
 10
0.0000000000000000
 20
0.0000000000000000
  9
$LTSCALE
 40
5.0000000000000000
  9
$ATTMODE
 70
     1
  9
$TEXTSIZE
 40
0.2000000000000000
  9
$TEXTSTYLE
  7
STANDARD
  9
$CLAYER
  8
0
  9
$CELTYPE
  6
STANDARD
  9
$CECOLOR
 62
   256
  9
$DIMSCALE
 40
1.0000000000000000
  9
$LUNITS
 70
     2
  9
$LUPREC
 70
     2
  9
$AUNITS
 70
     1
  9
$AUPREC
 70
     2
  9
$ANGBASE
 50
0.0000000000000000
  9
$ANGDIR
 70
     0
  9
$FLATLAND
 70
     0
  0
ENDSEC
  0
SECTION
  2
TABLES
  0
TABLE
  2
LTYPE
 70
     7
  0
LTYPE
  2
CW-BC-LT1
 70
    64
  3
--------------------------
 72
    65
 73
     0
 40
0.0000000000000000
  0
LTYPE
  2
CW-BC-LT2
 70
    64
  3
--------------------------
 72
    65
 73
     2
 40
1.0000000000000000
 49
0.5000000000000000
 49
-0.5000000000000000
  0
LTYPE
  2
CW-BC-LT3
 70
    64
  3
--------------------------
 72
    65
 73
     2
 40
1.0000000000000000
 49
0.8000000000000000
 49
-0.2000000000000000
  0
LTYPE
  2
CW-BC-LT4
 70
    64
  3
--------------------------
 72
    65
 73
     4
 40
1.6000000000000000
 49
0.6000000000000000
 49
-0.4000000000000000
 49
0.2000000000000000
 49
-0.4000000000000000
  0
LTYPE
  2
CW-BC-LT5
 70
    64
  3
--------------------------
 72
    65
 73
     4
 40
1.2000000000000000
 49
0.2000000000000000
 49
-0.2000000000000000
 49
0.2000000000000000
 49
-0.6000000000000000
  0
LTYPE
  2
CW-BC-LT6
 70
    64
  3
--------------------------
 72
    65
 73
     6
 40
1.6000000000000000
 49
0.6000000000000000
 49
-0.2000000000000000
 49
0.2000000000000000
 49
-0.2000000000000000
 49
0.2000000000000000
 49
-0.2000000000000000
  0
LTYPE
  2
CW-BC-LT7
 70
    64
  3
--------------------------
 72
    65
 73
     2
 40
0.4000000000000000
 49
0.2000000000000000
 49
-0.2000000000000000
  0
ENDTAB
  0
TABLE
  2
LAYER
 70
     1
  0
LAYER
  2
1
 70
     0
 62
     7
  6
CW-BC-LT1
  0
ENDTAB
  0
ENDSEC
  0
SECTION
  2
BLOCKS
  0
BLOCK
  2
*X2
 70
     1
 10
0.0000000000000000
 20
0.0000000000000000
 30
0.0000000000000000
  3
*X
  0
LINE
  8
1
 62
     8
  6
CW-BC-LT1
 10
24.9999999701976800
 20
0.0000000298023224
 30
0.0000000000000000
 11
25.0000000298023200
 21
0.0000000298023224
 31
0.0000000000000000
  0
LINE
  8
1
 62
     8
  6
CW-BC-LT1
 10
24.7999999672174400
 20
0.2000000327825546
 30
0.0000000000000000
 11
25.2000000327825600
 21
0.2000000327825546
 31
0.0000000000000000
  0
LINE
  8
1
 62
     8
  6
CW-BC-LT1
 10
24.5999999642372200
 20
0.4000000357627868
 30
0.0000000000000000
 11
25.4000000357627800
 21
0.4000000357627868
 31
0.0000000000000000
  0
LINE
  8
1
 62
     8
  6
CW-BC-LT1
 10
24.3999999612569800
 20
0.6000000387430191
 30
0.0000000000000000
 11
25.6000000387430200
 21
0.6000000387430191
 31
0.0000000000000000
  0
LINE
  8
1
 62
     8
  6
CW-BC-LT1
 10
24.1999999582767500
 20
0.8000000417232513
 30
0.0000000000000000
 11
25.8000000417232500
 21
0.8000000417232513
 31
0.0000000000000000
  0
LINE
  8
1
 62
     8
  6
CW-BC-LT1
 10
23.9999999552965200
 20
1.0000000447034840
 30
0.0000000000000000
 11
26.0000000447034800
 21
1.0000000447034840
 31
0.0000000000000000
  0
LINE
  8
1
 62
     8
  6
CW-BC-LT1
 10
23.7999999523162800
 20
1.2000000476837160
 30
0.0000000000000000
 11
26.2000000476837200
 21
1.2000000476837160
 31
0.0000000000000000
  0
LINE
  8
1
 62
     8
  6
CW-BC-LT1
 10
23.5999999493360500
 20
1.4000000506639480
 30
0.0000000000000000
 11
26.4000000506639500
 21
1.4000000506639480
 31
0.0000000000000000
  0
LINE
  8
1
 62
     8
  6
CW-BC-LT1
 10
23.3999999463558200
 20
1.6000000536441800
 30
0.0000000000000000
 11
26.6000000536441800
 21
1.6000000536441800
 31
0.0000000000000000
  0
LINE
  8
1
 62
     8
  6
CW-BC-LT1
 10
23.1999999433755800
 20
1.8000000566244120
 30
0.0000000000000000
 11
26.8000000566244200
 21
1.8000000566244120
 31
0.0000000000000000
  0
LINE
  8
1
 62
     8
  6
CW-BC-LT1
 10
23.0000003427267000
 20
1.9999996572732920
 30
0.0000000000000000
 11
23.0000003427267000
 21
2.0000000000000000
 31
0.0000000000000000
  0
LINE
  8
1
 62
     8
  6
CW-BC-LT1
 10
23.2000003457069400
 20
1.7999996542930600
 30
0.0000000000000000
 11
23.2000003457069400
 21
2.0000000000000000
 31
0.0000000000000000
  0
LINE
  8
1
 62
     8
  6
CW-BC-LT1
 10
23.4000003486871700
 20
1.5999996513128280
 30
0.0000000000000000
 11
23.4000003486871700
 21
2.0000000000000000
 31
0.0000000000000000
  0
LINE
  8
1
 62
     8
  6
CW-BC-LT1
 10
23.6000003516674000
 20
1.3999996483325960
 30
0.0000000000000000
 11
23.6000003516674000
 21
2.0000000000000000
 31
0.0000000000000000
  0
LINE
  8
1
 62
     8
  6
CW-BC-LT1
 10
23.8000003546476400
 20
1.1999996453523640
 30
0.0000000000000000
 11
23.8000003546476400
 21
2.0000000000000000
 31
0.0000000000000000
  0
LINE
  8
1
 62
     8
  6
CW-BC-LT1
 10
24.0000003576278700
 20
0.9999996423721314
 30
0.0000000000000000
 11
24.0000003576278700
 21
2.0000000000000000
 31
0.0000000000000000
  0
LINE
  8
1
 62
     8
  6
CW-BC-LT1
 10
24.2000003606081000
 20
0.7999996393918991
 30
0.0000000000000000
 11
24.2000003606081000
 21
2.0000000000000000
 31
0.0000000000000000
  0
LINE
  8
1
 62
     8
  6
CW-BC-LT1
 10
24.4000003635883400
 20
0.5999996364116669
 30
0.0000000000000000
 11
24.4000003635883400
 21
2.0000000000000000
 31
0.0000000000000000
  0
LINE
  8
1
 62
     8
  6
CW-BC-LT1
 10
24.6000003665685600
 20
0.3999996334314346
 30
0.0000000000000000
 11
24.6000003665685600
 21
2.0000000000000000
 31
0.0000000000000000
  0
LINE
  8
1
 62
     8
  6
CW-BC-LT1
 10
24.8000003695488000
 20
0.1999996304512024
 30
0.0000000000000000
 11
24.8000003695488000
 21
2.0000000000000000
 31
0.0000000000000000
  0
LINE
  8
1
 62
     8
  6
CW-BC-LT1
 10
25.0000003725290300
 20
0.0000003725290298
 30
0.0000000000000000
 11
25.0000003725290300
 21
2.0000000000000000
 31
0.0000000000000000
  0
LINE
  8
1
 62
     8
  6
CW-BC-LT1
 10
25.2000003755092600
 20
0.2000003755092621
 30
0.0000000000000000
 11
25.2000003755092600
 21
2.0000000000000000
 31
0.0000000000000000
  0
LINE
  8
1
 62
     8
  6
CW-BC-LT1
 10
25.4000003784895000
 20
0.4000003784894943
 30
0.0000000000000000
 11
25.4000003784895000
 21
2.0000000000000000
 31
0.0000000000000000
  0
LINE
  8
1
 62
     8
  6
CW-BC-LT1
 10
25.6000003814697200
 20
0.6000003814697266
 30
0.0000000000000000
 11
25.6000003814697200
 21
2.0000000000000000
 31
0.0000000000000000
  0
LINE
  8
1
 62
     8
  6
CW-BC-LT1
 10
25.8000003844499600
 20
0.8000003844499588
 30
0.0000000000000000
 11
25.8000003844499600
 21
2.0000000000000000
 31
0.0000000000000000
  0
LINE
  8
1
 62
     8
  6
CW-BC-LT1
 10
26.0000003874301900
 20
1.0000003874301910
 30
0.0000000000000000
 11
26.0000003874301900
 21
2.0000000000000000
 31
0.0000000000000000
  0
LINE
  8
1
 62
     8
  6
CW-BC-LT1
 10
26.2000003904104200
 20
1.2000003904104230
 30
0.0000000000000000
 11
26.2000003904104200
 21
2.0000000000000000
 31
0.0000000000000000
  0
LINE
  8
1
 62
     8
  6
CW-BC-LT1
 10
26.4000003933906600
 20
1.4000003933906560
 30
0.0000000000000000
 11
26.4000003933906600
 21
2.0000000000000000
 31
0.0000000000000000
  0
LINE
  8
1
 62
     8
  6
CW-BC-LT1
 10
26.6000003963708900
 20
1.6000003963708880
 30
0.0000000000000000
 11
26.6000003963708900
 21
2.0000000000000000
 31
0.0000000000000000
  0
LINE
  8
1
 62
     8
  6
CW-BC-LT1
 10
26.8000003993511200
 20
1.8000003993511200
 30
0.0000000000000000
 11
26.8000003993511200
 21
2.0000000000000000
 31
0.0000000000000000
  0
ENDBLK
  0
BLOCK
  2
*D10
 70
     1
 10
0.0000000000000000
 20
0.0000000000000000
 30
0.0000000000000000
  3
*D
  0
CIRCLE
  8
1
 62
     8
  6
CW-BC-LT1
 10
0.0000000000000000
 20
0.0000000000000000
 30
0.0000000000000000
 40
0.0000000000000000
  0
TEXT
  8
1
 62
     8
  6
CW-BC-LT1
 10
10.4322953637058200
 20
-7.1516580581665040
 30
0.0000000000000000
 40
2.0000000000000000
 41
0.6999999880790710
 50
0.0000000000000000
 51
0.0000000000000000
  1
24
  0
LINE
  8
1
 62
     8
  6
CW-BC-LT1
 10
24.0000000000000000
 20
0.0000000000000000
 30
0.0000000000000000
 11
24.0000000000000000
 21
-9.1516580581665040
 31
0.0000000000000000
  0
SOLID
  8
1
 62
     8
  6
CW-BC-LT1
 10
22.3999999761581400
 20
-8.5803767745005890
 30
0.0000000000000000
 11
22.3999999761581400
 21
-7.7229393418324190
 31
0.0000000000000000
 12
24.0000000000000000
 22
-8.1516580581665040
 32
0.0000000000000000
 13
24.0000000000000000
 23
-8.1516580581665040
 33
0.0000000000000000
  0
LINE
  8
1
 62
     8
  6
CW-BC-LT1
 10
0.0000000000000000
 20
-8.1516580581665040
 30
0.0000000000000000
 11
24.0000000000000000
 21
-8.1516580581665040
 31
0.0000000000000000
  0
SOLID
  8
1
 62
     8
  6
CW-BC-LT1
 10
1.6000000238418580
 20
-7.7229393418324190
 30
0.0000000000000000
 11
1.6000000238418580
 21
-8.5803767745005890
 31
0.0000000000000000
 12
0.0000000000000000
 22
-8.1516580581665040
 32
0.0000000000000000
 13
0.0000000000000000
 23
-8.1516580581665040
 33
0.0000000000000000
  0
LINE
  8
1
 62
     8
  6
CW-BC-LT1
 10
0.0000000000000000
 20
0.0000000000000000
 30
0.0000000000000000
 11
0.0000000000000000
 21
-9.1516580581665040
 31
0.0000000000000000
  0
ENDBLK
  0
BLOCK
  2
*D11
 70
     1
 10
0.0000000000000000
 20
0.0000000000000000
 30
0.0000000000000000
  3
*D
  0
CIRCLE
  8
1
 62
     8
  6
CW-BC-LT1
 10
0.0000000000000000
 20
0.0000000000000000
 30
0.0000000000000000
 40
0.0000000000000000
  0
TEXT
  8
1
 62
     8
  6
CW-BC-LT1
 10
12.4559387741558800
 20
-11.3580999374389600
 30
0.0000000000000000
 40
2.0000000000000000
 41
0.6999999880790710
 50
0.0000000000000000
 51
0.0000000000000000
  1
28
  0
LINE
  8
1
 62
     8
  6
CW-BC-LT1
 10
0.0000000000000000
 20
0.0000000000000000
 30
0.0000000000000000
 11
0.0000000000000000
 21
-13.3580999374389600
 31
0.0000000000000000
  0
SOLID
  8
1
 62
     8
  6
CW-BC-LT1
 10
1.6000000238418580
 20
-11.9293812211048800
 30
0.0000000000000000
 11
1.6000000238418580
 21
-12.7868186537730500
 31
0.0000000000000000
 12
0.0000000000000000
 22
-12.3580999374389600
 32
0.0000000000000000
 13
0.0000000000000000
 23
-12.3580999374389600
 33
0.0000000000000000
  0
LINE
  8
1
 62
     8
  6
CW-BC-LT1
 10
28.0000000000000000
 20
-12.3580999374389600
 30
0.0000000000000000
 11
0.0000000000000000
 21
-12.3580999374389600
 31
0.0000000000000000
  0
SOLID
  8
1
 62
     8
  6
CW-BC-LT1
 10
26.3999999761581400
 20
-12.7868186537730500
 30
0.0000000000000000
 11
26.3999999761581400
 21
-11.9293812211048800
 31
0.0000000000000000
 12
28.0000000000000000
 22
-12.3580999374389600
 32
0.0000000000000000
 13
28.0000000000000000
 23
-12.3580999374389600
 33
0.0000000000000000
  0
LINE
  8
1
 62
     8
  6
CW-BC-LT1
 10
28.0000000000000000
 20
0.0000000000000000
 30
0.0000000000000000
 11
28.0000000000000000
 21
-13.3580999374389600
 31
0.0000000000000000
  0
ENDBLK
  0
BLOCK
  2
*D12
 70
     1
 10
0.0000000000000000
 20
0.0000000000000000
 30
0.0000000000000000
  3
*D
  0
LINE
  8
1
 62
     8
  6
CW-BC-LT1
 10
0.0000000000000000
 20
0.0000000000000000
 30
0.0000000000000000
 11
0.0000000000000000
 21
-13.3580999374389600
 31
0.0000000000000000
  0
TEXT
  8
1
 62
     8
  6
CW-BC-LT1
 10
16.4559387741558800
 20
13.2037792205810600
 30
0.0000000000000000
 40
2.0000000000000000
 41
0.6999999880790710
 50
0.0000000000000000
 51
0.0000000000000000
  1
36
  0
SOLID
  8
1
 62
     8
  6
CW-BC-LT1
 10
1.6000000238418580
 20
12.6324979369151400
 30
0.0000000000000000
 11
1.6000000238418580
 21
11.7750605042469700
 31
0.0000000000000000
 12
0.0000000000000000
 22
12.2037792205810600
 32
0.0000000000000000
 13
0.0000000000000000
 23
12.2037792205810600
 33
0.0000000000000000
  0
LINE
  8
1
 62
     8
  6
CW-BC-LT1
 10
36.0000000000000000
 20
12.2037792205810600
 30
0.0000000000000000
 11
0.0000000000000000
 21
12.2037792205810600
 31
0.0000000000000000
  0
SOLID
  8
1
 62
     8
  6
CW-BC-LT1
 10
34.3999999761581400
 20
11.7750605042469700
 30
0.0000000000000000
 11
34.3999999761581400
 21
12.6324979369151400
 31
0.0000000000000000
 12
36.0000000000000000
 22
12.2037792205810600
 32
0.0000000000000000
 13
36.0000000000000000
 23
12.2037792205810600
 33
0.0000000000000000
  0
ENDBLK
  0
BLOCK
  2
*D13
 70
     1
 10
0.0000000000000000
 20
0.0000000000000000
 30
0.0000000000000000
  3
*D
  0
CIRCLE
  8
1
 62
     8
  6
CW-BC-LT1
 10
0.0000000000000000
 20
0.0000000000000000
 30
0.0000000000000000
 40
0.0000000000000000
  0
TEXT
  8
1
 62
     8
  6
CW-BC-LT1
 10
14.4559387741558800
 20
13.5190076828002900
 30
0.0000000000000000
 40
2.0000000000000000
 41
0.6999999880790710
 50
0.0000000000000000
 51
0.0000000000000000
  1
32
  0
LINE
  8
1
 62
     8
  6
CW-BC-LT1
 10
0.0000000000000000
 20
8.0000000000000000
 30
0.0000000000000000
 11
0.0000000000000000
 21
13.5190076828002900
 31
0.0000000000000000
  0
SOLID
  8
1
 62
     8
  6
CW-BC-LT1
 10
1.6000000238418580
 20
12.9477263991343800
 30
0.0000000000000000
 11
1.6000000238418580
 21
12.0902889664662100
 31
0.0000000000000000
 12
0.0000000000000000
 22
12.5190076828002900
 32
0.0000000000000000
 13
0.0000000000000000
 23
12.5190076828002900
 33
0.0000000000000000
  0
LINE
  8
1
 62
     8
  6
CW-BC-LT1
 10
32.0000000000000000
 20
12.5190076828002900
 30
0.0000000000000000
 11
0.0000000000000000
 21
12.5190076828002900
 31
0.0000000000000000
  0
SOLID
  8
1
 62
     8
  6
CW-BC-LT1
 10
30.3999999761581400
 20
12.0902889664662100
 30
0.0000000000000000
 11
30.3999999761581400
 21
12.9477263991343800
 31
0.0000000000000000
 12
32.0000000000000000
 22
12.5190076828002900
 32
0.0000000000000000
 13
32.0000000000000000
 23
12.5190076828002900
 33
0.0000000000000000
  0
LINE
  8
1
 62
     8
  6
CW-BC-LT1
 10
32.0000000000000000
 20
10.0000000000000000
 30
0.0000000000000000
 11
32.0000000000000000
 21
13.5190076828002900
 31
0.0000000000000000
  0
ENDBLK
  0
BLOCK
  2
*D14
 70
     1
 10
0.0000000000000000
 20
0.0000000000000000
 30
0.0000000000000000
  3
*D
  0
CIRCLE
  8
1
 62
     8
  6
CW-BC-LT1
 10
0.0000000000000000
 20
0.0000000000000000
 30
0.0000000000000000
 40
0.0000000000000000
  0
TEXT
  8
1
 62
     8
  6
CW-BC-LT1
 10
9.4559387741558840
 20
-2.5819435119628900
 30
0.0000000000000000
 40
2.0000000000000000
 41
0.6999999880790710
 50
0.0000000000000000
 51
0.0000000000000000
  1
22
  0
LINE
  8
1
 62
     8
  6
CW-BC-LT1
 10
22.0000000000000000
 20
0.0000000000000000
 30
0.0000000000000000
 11
22.0000000000000000
 21
-4.5819435119628910
 31
0.0000000000000000
  0
SOLID
  8
1
 62
     8
  6
CW-BC-LT1
 10
20.3999999761581400
 20
-4.0106622282969760
 30
0.0000000000000000
 11
20.3999999761581400
 21
-3.1532247956288060
 31
0.0000000000000000
 12
22.0000000000000000
 22
-3.5819435119628900
 32
0.0000000000000000
 13
22.0000000000000000
 23
-3.5819435119628900
 33
0.0000000000000000
  0
LINE
  8
1
 62
     8
  6
CW-BC-LT1
 10
0.0000000000000000
 20
-3.5819435119628900
 30
0.0000000000000000
 11
22.0000000000000000
 21
-3.5819435119628900
 31
0.0000000000000000
  0
SOLID
  8
1
 62
     8
  6
CW-BC-LT1
 10
1.6000000238418580
 20
-3.1532247956288060
 30
0.0000000000000000
 11
1.6000000238418580
 21
-4.0106622282969760
 31
0.0000000000000000
 12
0.0000000000000000
 22
-3.5819435119628900
 32
0.0000000000000000
 13
0.0000000000000000
 23
-3.5819435119628900
 33
0.0000000000000000
  0
LINE
  8
1
 62
     8
  6
CW-BC-LT1
 10
0.0000000000000000
 20
0.0000000000000000
 30
0.0000000000000000
 11
0.0000000000000000
 21
-4.5819435119628910
 31
0.0000000000000000
  0
ENDBLK
  0
BLOCK
  2
*D15
 70
     1
 10
0.0000000000000000
 20
0.0000000000000000
 30
0.0000000000000000
  3
*D
  0
TEXT
  8
1
 62
     8
  6
CW-BC-LT1
 10
9.4559387741558840
 20
-2.5819435119628900
 30
0.0000000000000000
 40
0.0000000000000000
 41
0.0000000000000000
 50
0.0000000000000000
 51
370607668.0000000000000000
  1
22
  0
TEXT
  8
1
 62
     8
  6
CW-BC-LT1
 10
25.7902355783179000
 20
3.6315583487206560
 30
0.0000000000000000
 40
2.0000000000000000
 41
0.6999999880790710
 50
0.0000000000000000
 51
0.0000000000000000
  1
10
  0
SOLID
  8
1
 62
     8
  6
CW-BC-LT1
 10
26.3615168030751000
 20
1.6000000238418580
 30
0.0000000000000000
 11
27.2189542357432600
 21
1.6000000238418580
 31
0.0000000000000000
 12
26.7902355194091800
 22
0.0000000000000000
 32
0.0000000000000000
 13
26.7902355194091800
 23
0.0000000000000000
 33
0.0000000000000000
  0
LINE
  8
1
 62
     8
  6
CW-BC-LT1
 10
26.7902355194091800
 20
10.0000000000000000
 30
0.0000000000000000
 11
26.7902355194091800
 21
0.0000000000000000
 31
0.0000000000000000
  0
SOLID
  8
1
 62
     8
  6
CW-BC-LT1
 10
27.2189542357432600
 20
8.3999999761581420
 30
0.0000000000000000
 11
26.3615168030751000
 21
8.3999999761581420
 31
0.0000000000000000
 12
26.7902355194091800
 22
10.0000000000000000
 32
0.0000000000000000
 13
26.7902355194091800
 23
10.0000000000000000
 33
0.0000000000000000
  0
LINE
  8
1
 62
     8
  6
CW-BC-LT1
 10
32.0000000000000000
 20
10.0000000000000000
 30
0.0000000000000000
 11
25.7902355194091800
 21
10.0000000000000000
 31
0.0000000000000000
  0
ENDBLK
  0
BLOCK
  2
*D16
 70
     1
 10
0.0000000000000000
 20
0.0000000000000000
 30
0.0000000000000000
  3
*D
  0
CIRCLE
  8
1
 62
     8
  6
CW-BC-LT1
 10
0.0000000000000000
 20
0.0000000000000000
 30
0.0000000000000000
 40
0.0000000000000000
  0
TEXT
  8
1
 62
     8
  6
CW-BC-LT1
 10
-3.3838343237910310
 20
-4.9105432680226070
 30
0.0000000000000000
 40
2.0000000000000000
 41
0.6999999880790710
 50
0.0000000000000000
 51
0.0000000000000000
  1
8
  0
LINE
  8
1
 62
     8
  6
CW-BC-LT1
 10
0.0000000000000000
 20
0.0000000000000000
 30
0.0000000000000000
 11
-3.3838343620300300
 21
0.0000000000000000
 31
0.0000000000000000
  0
SOLID
  8
1
 62
     8
  6
CW-BC-LT1
 10
-1.9551156456959440
 20
-1.6000000238418580
 30
0.0000000000000000
 11
-2.8125530783641140
 21
-1.6000000238418580
 31
0.0000000000000000
 12
-2.3838343620300300
 22
0.0000000000000000
 32
0.0000000000000000
 13
-2.3838343620300300
 23
0.0000000000000000
 33
0.0000000000000000
  0
LINE
  8
1
 62
     8
  6
CW-BC-LT1
 10
-2.3838343620300300
 20
-8.0000000000000000
 30
0.0000000000000000
 11
-2.3838343620300300
 21
0.0000000000000000
 31
0.0000000000000000
  0
SOLID
  8
1
 62
     8
  6
CW-BC-LT1
 10
-2.8125530783641140
 20
-6.3999999761581420
 30
0.0000000000000000
 11
-1.9551156456959440
 21
-6.3999999761581420
 31
0.0000000000000000
 12
-2.3838343620300300
 22
-8.0000000000000000
 32
0.0000000000000000
 13
-2.3838343620300300
 23
-8.0000000000000000
 33
0.0000000000000000
  0
LINE
  8
1
 62
     8
  6
CW-BC-LT1
 10
2.0000000000000000
 20
-8.0000000000000000
 30
0.0000000000000000
 11
-3.3838343620300300
 21
-8.0000000000000000
 31
0.0000000000000000
  0
ENDBLK
  0
BLOCK
  2
*D17
 70
     1
 10
0.0000000000000000
 20
0.0000000000000000
 30
0.0000000000000000
  3
*D
  0
CIRCLE
  8
1
 62
     8
  6
CW-BC-LT1
 10
0.0000000000000000
 20
0.0000000000000000
 30
0.0000000000000000
 40
0.0000000000000000
  0
TEXT
  8
1
 62
     8
  6
CW-BC-LT1
 10
-8.1686915586538390
 20
14.8292736150880500
 30
0.0000000000000000
 40
2.0000000000000000
 41
0.6999999880790710
 50
0.0000000000000000
 51
0.0000000000000000
  1
33
  0
LINE
  8
1
 62
     8
  6
CW-BC-LT1
 10
0.0000000000000000
 20
33.0000000000000000
 30
0.0000000000000000
 11
-8.1686916351318360
 21
33.0000000000000000
 31
0.0000000000000000
  0
SOLID
  8
1
 62
     8
  6
CW-BC-LT1
 10
-6.7399729187977510
 20
31.3999999761581400
 30
0.0000000000000000
 11
-7.5974103514659210
 21
31.3999999761581400
 31
0.0000000000000000
 12
-7.1686916351318360
 22
33.0000000000000000
 32
0.0000000000000000
 13
-7.1686916351318360
 23
33.0000000000000000
 33
0.0000000000000000
  0
LINE
  8
1
 62
     8
  6
CW-BC-LT1
 10
-7.1686916351318360
 20
0.0000000000000000
 30
0.0000000000000000
 11
-7.1686916351318360
 21
33.0000000000000000
 31
0.0000000000000000
  0
SOLID
  8
1
 62
     8
  6
CW-BC-LT1
 10
-7.5974103514659210
 20
1.6000000238418580
 30
0.0000000000000000
 11
-6.7399729187977510
 21
1.6000000238418580
 31
0.0000000000000000
 12
-7.1686916351318360
 22
0.0000000000000000
 32
0.0000000000000000
 13
-7.1686916351318360
 23
0.0000000000000000
 33
0.0000000000000000
  0
LINE
  8
1
 62
     8
  6
CW-BC-LT1
 10
0.0000000000000000
 20
0.0000000000000000
 30
0.0000000000000000
 11
-8.1686916351318360
 21
0.0000000000000000
 31
0.0000000000000000
  0
ENDBLK
  0
BLOCK
  2
*D18
 70
     1
 10
0.0000000000000000
 20
0.0000000000000000
 30
0.0000000000000000
  3
*D
  0
CIRCLE
  8
1
 62
     8
  6
CW-BC-LT1
 10
0.0000000000000000
 20
0.0000000000000000
 30
0.0000000000000000
 40
0.0000000000000000
  0
TEXT
  8
1
 62
     8
  6
CW-BC-LT1
 10
-20.5485018908723100
 20
-23.1195197129645600
 30
0.0000000000000000
 40
2.0000000000000000
 41
0.6999999880790710
 50
0.0000000000000000
 51
0.0000000000000000
  1
43
  0
LINE
  8
1
 62
     8
  6
CW-BC-LT1
 10
0.0000000000000000
 20
-43.0000000000000000
 30
0.0000000000000000
 11
-20.5485019683837900
 21
-43.0000000000000000
 31
0.0000000000000000
  0
SOLID
  8
1
 62
     8
  6
CW-BC-LT1
 10
-19.9772206847178800
 20
-41.3999999761581400
 30
0.0000000000000000
 11
-19.1197832520497000
 21
-41.3999999761581400
 31
0.0000000000000000
 12
-19.5485019683837900
 22
-43.0000000000000000
 32
0.0000000000000000
 13
-19.5485019683837900
 23
-43.0000000000000000
 33
0.0000000000000000
  0
LINE
  8
1
 62
     8
  6
CW-BC-LT1
 10
-19.5485019683837900
 20
0.0000000000000000
 30
0.0000000000000000
 11
-19.5485019683837900
 21
-43.0000000000000000
 31
0.0000000000000000
  0
SOLID
  8
1
 62
     8
  6
CW-BC-LT1
 10
-19.1197832520497000
 20
-1.6000000238418580
 30
0.0000000000000000
 11
-19.9772206847178800
 21
-1.6000000238418580
 31
0.0000000000000000
 12
-19.5485019683837900
 22
0.0000000000000000
 32
0.0000000000000000
 13
-19.5485019683837900
 23
0.0000000000000000
 33
0.0000000000000000
  0
LINE
  8
1
 62
     8
  6
CW-BC-LT1
 10
0.0000000000000000
 20
0.0000000000000000
 30
0.0000000000000000
 11
-20.5485019683837900
 21
0.0000000000000000
 31
0.0000000000000000
  0
ENDBLK
  0
BLOCK
  2
*D19
 70
     1
 10
0.0000000000000000
 20
0.0000000000000000
 30
0.0000000000000000
  3
*D
  0
CIRCLE
  8
1
 62
     8
  6
CW-BC-LT1
 10
0.0000000000000000
 20
0.0000000000000000
 30
0.0000000000000000
 40
0.0000000000000000
  0
TEXT
  8
1
 62
     8
  6
CW-BC-LT1
 10
-27.3483275592072700
 20
-25.7995886826911200
 30
0.0000000000000000
 40
2.0000000000000000
 41
0.6999999880790710
 50
0.0000000000000000
 51
0.0000000000000000
  1
48
  0
LINE
  8
1
 62
     8
  6
CW-BC-LT1
 10
0.0000000000000000
 20
-48.0000000000000000
 30
0.0000000000000000
 11
-27.3483276367187500
 21
-48.0000000000000000
 31
0.0000000000000000
  0
SOLID
  8
1
 62
     8
  6
CW-BC-LT1
 10
-26.7770463530528400
 20
-46.3999999761581400
 30
0.0000000000000000
 11
-25.9196089203846600
 21
-46.3999999761581400
 31
0.0000000000000000
 12
-26.3483276367187500
 22
-48.0000000000000000
 32
0.0000000000000000
 13
-26.3483276367187500
 23
-48.0000000000000000
 33
0.0000000000000000
  0
LINE
  8
1
 62
     8
  6
CW-BC-LT1
 10
-26.3483276367187500
 20
0.0000000000000000
 30
0.0000000000000000
 11
-26.3483276367187500
 21
-48.0000000000000000
 31
0.0000000000000000
  0
SOLID
  8
1
 62
     8
  6
CW-BC-LT1
 10
-25.9196089203846600
 20
-1.6000000238418580
 30
0.0000000000000000
 11
-26.7770463530528400
 21
-1.6000000238418580
 31
0.0000000000000000
 12
-26.3483276367187500
 22
0.0000000000000000
 32
0.0000000000000000
 13
-26.3483276367187500
 23
0.0000000000000000
 33
0.0000000000000000
  0
LINE
  8
1
 62
     8
  6
CW-BC-LT1
 10
0.0000000000000000
 20
0.0000000000000000
 30
0.0000000000000000
 11
-27.3483276367187500
 21
0.0000000000000000
 31
0.0000000000000000
  0
ENDBLK
  0
ENDSEC
  0
SECTION
  2
ENTITIES
  0
LINE
  8
1
 62
     8
  6
CW-BC-LT1
 10
16.0000000000000000
 20
10.0000000000000000
 30
0.0000000000000000
 11
18.0000000000000000
 21
10.0000000000000000
 31
0.0000000000000000
  0
LINE
  8
1
 62
     8
  6
CW-BC-LT1
 10
-18.0000000000000000
 20
8.0000000000000000
 30
0.0000000000000000
 11
-16.0000000000000000
 21
8.0000000000000000
 31
0.0000000000000000
  0
LINE
  8
1
 62
     8
  6
CW-BC-LT1
 10
-18.0000000000000000
 20
8.0000000000000000
 30
0.0000000000000000
 11
-18.0000000000000000
 21
33.0000000000000000
 31
0.0000000000000000
  0
LINE
  8
1
 62
     8
  6
CW-BC-LT1
 10
18.0000000000000000
 20
10.0000000000000000
 30
0.0000000000000000
 11
18.0000000000000000
 21
33.0000000000000000
 31
0.0000000000000000
  0
LINE
  8
1
 62
     8
  6
CW-BC-LT1
 10
-12.0000000000000000
 20
43.0000000000000000
 30
0.0000000000000000
 11
12.0000000000000000
 21
43.0000000000000000
 31
0.0000000000000000
  0
LINE
  8
1
 62
     8
  6
CW-BC-LT1
 10
18.0000000000000000
 20
33.0000000000000000
 30
0.0000000000000000
 11
12.0000000000000000
 21
43.0000000000000000
 31
0.0000000000000000
  0
LINE
  8
1
 62
     8
  6
CW-BC-LT1
 10
-12.0000000000000000
 20
43.0000000000000000
 30
0.0000000000000000
 11
-18.0000000000000000
 21
33.0000000000000000
 31
0.0000000000000000
  0
LINE
  8
1
 62
     8
  6
CW-BC-LT1
 10
11.0000000000000000
 20
48.0000000000000000
 30
0.0000000000000000
 11
-11.0000000000000000
 21
48.0000000000000000
 31
0.0000000000000000
  0
LINE
  8
1
 62
     8
  6
CW-BC-LT1
 10
-11.0000000000000000
 20
48.0000000000000000
 30
0.0000000000000000
 11
-14.0000000000000000
 21
45.0000000000000000
 31
0.0000000000000000
  0
LINE
  8
1
 62
     8
  6
CW-BC-LT1
 10
-14.0000000000000000
 20
39.6666666666666600
 30
0.0000000000000000
 11
-14.0000000000000000
 21
45.0000000000000000
 31
0.0000000000000000
  0
LINE
  8
1
 62
     8
  6
CW-BC-LT1
 10
11.0000000000000000
 20
48.0000000000000000
 30
0.0000000000000000
 11
14.0000000000000000
 21
45.0000000000000000
 31
0.0000000000000000
  0
LINE
  8
1
 62
     8
  6
CW-BC-LT1
 10
14.0000000000000000
 20
45.0000000000000000
 30
0.0000000000000000
 11
14.0000000000000000
 21
39.6666666666666600
 31
0.0000000000000000
  0
TEXT
  8
1
 62
     8
  6
CW-BC-LT1
 10
20.3842622950819700
 20
9.8911475409836060
 30
0.0000000000000000
 40
2.0000000000000000
 41
0.6999999880790710
 50
0.0000000000000000
 51
0.0000000000000000
  1
Lichtraum TT
  0
LINE
  8
1
 62
     8
  6
CW-BC-LT1
 10
6.0000000000000000
 20
-2.0000000000000000
 30
0.0000000000000000
 11
-6.0000000000000000
 21
-2.0000000000000000
 31
0.0000000000000000
  0
LINE
  8
1
 62
     8
  6
CW-BC-LT1
 10
-6.0000000000000000
 20
0.0000000000000000
 30
0.0000000000000000
 11
-6.0000000000000000
 21
-2.0000000000000000
 31
0.0000000000000000
  0
LINE
  8
1
 62
     8
  6
CW-BC-LT1
 10
6.0000000000000000
 20
-2.0000000000000000
 30
0.0000000000000000
 11
6.0000000000000000
 21
0.0000000000000000
 31
0.0000000000000000
  0
LINE
  8
1
 62
     8
  6
CW-BC-LT1
 10
16.0000000000000000
 20
0.0000000000000000
 30
0.0000000000000000
 11
40.0000000000000000
 21
0.0000000000000000
 31
0.0000000000000000
  0
INSERT
  8
1
  2
*X2
 10
0.0000000000000000
 20
0.0000000000000000
 30
0.0000000000000000
 41
1.0000000000000000
 42
1.0000000000000000
 43
1.0000000000000000
 50
0.0000000000000000
1001
ACAD
1000
HATCH
1002
{
1070
    16
1000
PJ2HAT16
1040
0.20
1040
0.00
1002
}
  0
TEXT
  8
1
 62
     8
  6
CW-BC-LT1
 10
28.0085245901639400
 20
1.1396721311475400
 30
0.0000000000000000
 40
2.0000000000000000
 41
0.6999999880790710
 50
0.0000000000000000
 51
0.0000000000000000
  1
SO
  0
LINE
  8
1
 62
     8
  6
CW-BC-LT1
 10
23.0000000000000000
 20
2.0000000000000000
 30
0.0000000000000000
 11
27.0000000000000000
 21
2.0000000000000000
 31
0.0000000000000000
  0
LINE
  8
1
 62
     8
  6
CW-BC-LT1
 10
25.0000000000000000
 20
0.0000000000000000
 30
0.0000000000000000
 11
23.0000000000000000
 21
2.0000000000000000
 31
0.0000000000000000
  0
LINE
  8
1
 62
     8
  6
CW-BC-LT1
 10
27.0000000000000000
 20
2.0000000000000000
 30
0.0000000000000000
 11
25.0000000000000000
 21
0.0000000000000000
 31
0.0000000000000000
  0
LINE
  8
1
 62
     8
  6
CW-BC-LT1
 10
-16.0000000000000000
 20
0.0000000000000000
 30
0.0000000000000000
 11
-16.0000000000000000
 21
8.0000000000000000
 31
0.0000000000000000
  0
LINE
  8
1
 62
     8
  6
CW-BC-LT1
 10
16.0000000000000000
 20
0.0000000000000000
 30
0.0000000000000000
 11
16.0000000000000000
 21
10.0000000000000000
 31
0.0000000000000000
  0
LINE
  8
1
 62
     8
  6
CW-BC-LT1
 10
-16.0000000000000000
 20
0.0000000000000000
 30
0.0000000000000000
 11
16.0000000000000000
 21
0.0000000000000000
 31
0.0000000000000000
  0
DIMENSION
  8
1
 62
     8
  6
CW-BC-LT1
  2
*D10
 11
0.2055511474609375
 21
34.8483419418335000
 31
0.0000000000000000
 70
   129
 10
-12.0000000000000000
 20
34.8483419418335000
 30
0.0000000000000000
 13
12.0000000000000000
 23
43.0000000000000000
 33
0.0000000000000000
 14
-12.0000000000000000
 24
43.0000000000000000
 34
0.0000000000000000
  0
DIMENSION
  8
1
 62
     8
  6
CW-BC-LT1
  2
*D11
 11
0.2055511474609375
 21
27.3085667292277000
 31
0.0000000000000000
 70
   129
 10
14.0000000000000000
 20
27.3085667292277000
 30
0.0000000000000000
 13
-14.0000000000000000
 23
39.6666666666666600
 33
0.0000000000000000
 14
14.0000000000000000
 24
39.6666666666666600
 34
0.0000000000000000
  0
DIMENSION
  8
1
 62
     8
  6
CW-BC-LT1
  2
*D12
 11
0.2055511474609375
 21
20.2037792205810600
 31
0.0000000000000000
 70
   129
 10
18.0000000000000000
 20
20.2037792205810600
 30
0.0000000000000000
 13
-18.0000000000000000
 23
20.2037792205810600
 33
0.0000000000000000
 14
18.0000000000000000
 24
20.2037792205810600
 34
0.0000000000000000
  0
DIMENSION
  8
1
 62
     8
  6
CW-BC-LT1
  2
*D13
 11
0.2055511474609375
 21
12.5190076828002900
 31
0.0000000000000000
 70
   129
 10
16.0000000000000000
 20
12.5190076828002900
 30
0.0000000000000000
 13
-16.0000000000000000
 23
8.0000000000000000
 33
0.0000000000000000
 14
16.0000000000000000
 24
10.0000000000000000
 34
0.0000000000000000
  0
DIMENSION
  8
1
 62
     8
  6
CW-BC-LT1
  2
*D14
 11
0.2055511474609375
 21
44.4180564880371100
 31
0.0000000000000000
 70
   129
 10
-11.0000000000000000
 20
44.4180564880371100
 30
0.0000000000000000
 13
11.0000000000000000
 23
48.0000000000000000
 33
0.0000000000000000
 14
-11.0000000000000000
 24
48.0000000000000000
 34
0.0000000000000000
  0
DIMENSION
  8
1
 62
     8
  6
CW-BC-LT1
  2
*D15
 11
10.7902355194091800
 21
4.9792327880859380
 31
0.0000000000000000
 70
   129
 10
10.7902355194091800
 20
10.0000000000000000
 30
0.0000000000000000
 13
10.7902355194091800
 23
0.0000000000000000
 33
0.0000000000000000
 14
16.0000000000000000
 24
10.0000000000000000
 34
0.0000000000000000
  0
DIMENSION
  8
1
 62
     8
  6
CW-BC-LT1
  2
*D16
 11
-20.3838343620300300
 21
3.9642629623413080
 31
0.0000000000000000
 70
   129
 10
-20.3838343620300300
 20
0.0000000000000000
 30
0.0000000000000000
 13
-18.0000000000000000
 23
8.0000000000000000
 33
0.0000000000000000
 14
-16.0000000000000000
 24
0.0000000000000000
 34
0.0000000000000000
  0
DIMENSION
  8
1
 62
     8
  6
CW-BC-LT1
  2
*D17
 11
-25.1686916351318400
 21
16.5788860321044900
 31
0.0000000000000000
 70
   129
 10
-25.1686916351318400
 20
0.0000000000000000
 30
0.0000000000000000
 13
-18.0000000000000000
 23
33.0000000000000000
 33
0.0000000000000000
 14
-18.0000000000000000
 24
0.0000000000000000
 34
0.0000000000000000
  0
DIMENSION
  8
1
 62
     8
  6
CW-BC-LT1
  2
*D18
 11
-31.5485019683837900
 21
21.6537361145019500
 31
0.0000000000000000
 70
   129
 10
-31.5485019683837900
 20
43.0000000000000000
 30
0.0000000000000000
 13
-12.0000000000000000
 23
0.0000000000000000
 33
0.0000000000000000
 14
-12.0000000000000000
 24
43.0000000000000000
 34
0.0000000000000000
  0
DIMENSION
  8
1
 62
     8
  6
CW-BC-LT1
  2
*D19
 11
-37.3483276367187500
 21
23.9736671447753900
 31
0.0000000000000000
 70
   129
 10
-37.3483276367187500
 20
48.0000000000000000
 30
0.0000000000000000
 13
-11.0000000000000000
 23
0.0000000000000000
 33
0.0000000000000000
 14
-11.0000000000000000
 24
48.0000000000000000
 34
0.0000000000000000
  0
TEXT
  8
1
 62
     8
  6
CW-BC-LT1
 10
21.3637460177062000
 20
32.5863114754098300
 30
0.0000000000000000
 40
2.0000000000000000
 41
0.6999999880790710
 50
0.0000000000000000
 51
0.0000000000000000
  1
1) nur bei
  0
TEXT
  8
1
 62
     8
  6
CW-BC-LT1
 10
24.9333361816406200
 20
29.6920491803278600
 30
0.0000000000000000
 40
2.0000000000000000
 41
0.6999999880790710
 50
0.0000000000000000
 51
0.0000000000000000
  1
GÅterrampen
  0
TEXT
  8
1
 62
     8
  6
CW-BC-LT1
 10
21.3637460177062000
 20
22.7458196721311400
 30
0.0000000000000000
 40
2.0000000000000000
 41
0.6999999880790710
 50
0.0000000000000000
 51
0.0000000000000000
  1
2) FÅr Fahrleitung
  0
TEXT
  8
1
 62
     8
  6
CW-BC-LT1
 10
2.9369427390176740
 20
29.4990983606557400
 30
0.0000000000000000
 40
1.0000000000000000
 41
0.6999999880790710
 50
0.0000000000000000
 51
0.0000000000000000
  1
2)
  0
TEXT
  8
1
 62
     8
  6
CW-BC-LT1
 10
2.7439919193455430
 20
45.8999180327868800
 30
0.0000000000000000
 40
1.0000000000000000
 41
0.6999999880790710
 50
0.0000000000000000
 51
0.0000000000000000
  1
2)
  0
TEXT
  8
1
 62
     8
  6
CW-BC-LT1
 10
-39.2228113593429800
 20
27.4731147540983600
 30
0.0000000000000000
 40
1.0000000000000000
 41
0.6999999880790710
 50
89.9999999999997900
 51
0.0000000000000000
  1
2)
  0
TEXT
  8
1
 62
     8
  6
CW-BC-LT1
 10
8.4360410996734120
 20
6.7309016393442630
 30
0.0000000000000000
 40
1.0000000000000000
 41
0.6999999880790710
 50
89.9999999999997900
 51
0.0000000000000000
  1
1)
  0
ENDSEC
  0
EOF
